<?xml version="1.0" encoding="UTF-8"?>
<!-- Simple leaf favicon for The Green Almanac
     Uses a circular accent background and a white leaf silhouette.
     Scalable SVG works well as a favicon in modern browsers. -->
<svg xmlns="http://www.w3.org/2000/svg" viewBox="0 0 64 64" width="64" height="64">
  <defs>
    <linearGradient id="g" x1="0" x2="1" y1="0" y2="1">
      <stop offset="0%" stop-color="#7fa87a"/>
      <stop offset="100%" stop-color="#5f8a5f"/>
    </linearGradient>
  </defs>
  <rect width="64" height="64" rx="12" ry="12" fill="url(#g)"/>
  <path d="M44.5 20.5c-6.2 1.6-12.8 5.8-16.1 10.7-3.6 5.4-3.9 11.4-3.9 11.4s6.4-0.3 11.4-3.9c4.9-3.3 9.2-9.9 10.7-16.1 0.6-2.3-2.2-4.1-2.1-2.1z" fill="#ffffff" opacity="0.98"/>
  <path d="M22.5 18c4 0.2 9.2 1.7 13.4 4.6 3.3 2.4 5.5 5.3 6.3 6.5-1.6 0.1-4.1 0-6.8-0.6-3.6-0.9-7.4-3.1-10.1-5.8-2.6-2.6-4.8-6.4-2.8-4.7z" fill="#ffffff" opacity="0.92"/>
</svg>